<svg xmlns="http://www.w3.org/2000/svg" viewBox="0 0 240 240" role="img" aria-label="The Captain: a ship's wheel"><defs><radialGradient id="g" cx="50%" cy="40%" r="65%"><stop offset="0" stop-color="#14302a"/><stop offset="1" stop-color="#0f151a"/></radialGradient></defs><rect width="240" height="240" rx="28" fill="url(#g)"/><g fill="none" stroke-linecap="round" stroke-linejoin="round"><g stroke="#34d399" stroke-width="8"><path d="M120 44v152M44 120h152M66 66l108 108M174 66L66 174"/></g><circle cx="120" cy="120" r="54" stroke="#34d399" stroke-width="8" fill="#0f151a"/><path d="M120 66v108M66 120h108M82 82l76 76M158 82l-76 76" stroke="#1e2a32" stroke-width="6"/><circle cx="120" cy="120" r="16" fill="#f2b968" stroke="#f2b968" stroke-width="4"/><g fill="#10b981" stroke="none"><circle cx="120" cy="38" r="10"/><circle cx="120" cy="202" r="10"/><circle cx="38" cy="120" r="10"/><circle cx="202" cy="120" r="10"/><circle cx="62" cy="62" r="10"/><circle cx="178" cy="178" r="10"/><circle cx="178" cy="62" r="10"/><circle cx="62" cy="178" r="10"/></g></g></svg>
