<svg xmlns="http://www.w3.org/2000/svg" viewBox="0 0 240 240" role="img" aria-label="The Visionary: a star above a horizon"><defs><radialGradient id="g" cx="50%" cy="40%" r="65%"><stop offset="0" stop-color="#14302a"/><stop offset="1" stop-color="#0f151a"/></radialGradient></defs><rect width="240" height="240" rx="28" fill="url(#g)"/><g fill="none" stroke-linecap="round" stroke-linejoin="round"><path d="M40 176h160" stroke="#1e2a32" stroke-width="6"/><path d="M60 176c30-10 50-40 60-80" stroke="#34d399" stroke-width="6" stroke-dasharray="2 12"/><path d="M150 50l9 22 22 9-22 9-9 22-9-22-22-9 22-9z" fill="#f2b968" stroke="#f2b968" stroke-width="4"/><circle cx="60" cy="176" r="10" fill="#10b981" stroke="#10b981"/><path d="M190 50l3 7 7 3-7 3-3 7-3-7-7-3 7-3zM100 60l2 5 5 2-5 2-2 5-2-5-5-2 5-2z" fill="#94a3b8" stroke="none"/></g></svg>
